<?xml version="1.0" encoding="UTF-8"?>
<svg width="138px" height="45px" viewBox="0 0 138 45" version="1.1" xmlns="http://www.w3.org/2000/svg" xmlns:xlink="http://www.w3.org/1999/xlink">
    <!-- Generator: Sketch 48.2 (47327) - http://www.bohemiancoding.com/sketch -->
    <title>logo</title>
    <desc>Created with Sketch.</desc>
    <defs>
        <polygon id="path-1" points="13.0406253 17.3903716 0.0245683301 17.3903716 0.0245683301 0.104921909 13.0406253 0.104921909 13.0406253 17.3903716"></polygon>
        <polygon id="path-3" points="13.2938827 14.0108108 0.200455856 14.0108108 0.200455856 0.10526613 13.2938827 0.10526613 13.2938827 14.0108108"></polygon>
    </defs>
    <g id="Laptop" stroke="none" stroke-width="1" fill="none" fill-rule="evenodd" transform="translate(-171.000000, -92.000000)">
        <g id="header" transform="translate(172.000000, 0.000000)">
            <g id="logo" transform="translate(0.000000, 93.000000)">
                <g>
                    <path d="M23.719139,23.5423143 L32.8133464,40.6977547 C32.8133464,40.7720207 32.8833019,40.8462867 32.8833019,40.8462867 C33.9326335,42.2573402 35.0519205,43 36.241163,43 C36.3111185,43 36.3810739,43 36.5209848,43 C38.9694253,42.7772021 40.4384895,39.806563 41.4178657,38.0241796 C41.5577766,37.7271157 41.6976875,37.5043178 41.7676429,37.2815199 L58.417038,5.42141623 C59.1165924,3.86183074 59.1865478,2.59930915 58.6269043,1.55958549 C57.9973053,0.519861831 56.8080628,0 55.0591768,0 L38.0600045,0 C35.751475,0 34.7021433,1.11398964 33.7227672,2.89637306 L27.5666883,14.6303972 C27.2169111,15.298791 27.4267774,16.1899827 28.1263318,16.5613126 C28.7559308,16.9326425 29.5953961,16.7098446 29.9451733,15.9671848 L36.0312967,4.3074266 C36.7308511,3.04490501 37.0106729,2.82210708 38.0600045,2.82210708 L55.0591768,2.82210708 C55.9685975,2.82210708 56.2484193,2.97063903 56.3183747,2.97063903 C56.3183747,3.04490501 56.3183747,3.34196891 56.038553,4.01036269 L39.3891579,35.7962003 C39.249247,36.0189983 39.1093361,36.2417962 38.9694253,36.5388601 C38.4797372,37.5043178 37.2205392,39.955095 36.3111185,40.029361 C36.0312967,40.029361 35.5416086,39.7322971 35.121876,39.0639033 L26.097624,22.1312608 C26.097624,22.1312608 26.097624,22.1312608 26.097624,22.0569948 L19.9415452,10.7685665 C19.0321245,8.76338515 17.4931047,7.64939551 15.5343524,7.64939551 L2.80246204,7.64939551 C1.61321953,7.64939551 0.773754234,8.02072539 0.284066143,8.83765112 C-0.415488271,10.1001727 0.354021585,11.5854922 0.703798792,12.328152 L13.5056446,36.2417962 C13.5056446,36.3160622 13.5756,36.3160622 13.5756,36.3903282 C14.5549762,37.7271157 15.6043078,38.4697755 16.7935503,38.4697755 C16.8635058,38.4697755 16.9334612,38.4697755 17.0034166,38.4697755 C18.4025255,38.3212435 19.6617234,37.1329879 20.7810105,34.8307427 L23.6491836,28.9637306 C23.9989608,28.2210708 23.719139,27.4041451 23.0895401,27.0328152 C22.3899856,26.6614853 21.6204758,26.9585492 21.2706986,27.626943 L18.4025255,33.4939551 C17.6330156,35.1278066 17.0034166,35.5734024 16.7935503,35.5734024 C16.6536394,35.5734024 16.3038622,35.4248705 15.8141741,34.6822107 L3.0822838,10.9170984 C3.01232836,10.7685665 2.94237292,10.6200345 2.87241748,10.5457686 L15.4643969,10.5457686 C16.0939959,10.5457686 16.7935503,10.6943005 17.4231493,12.1053541 L23.719139,23.5423143 C23.719139,23.4680484 23.719139,23.4680484 23.719139,23.5423143 Z" id="Combined-Shape" stroke="#7143FF" stroke-width="0.5" fill="#7143FF" fill-rule="nonzero"></path>
                    <g id="Page-1" transform="translate(70.000000, 12.000000)">
                        <g id="Group-3" transform="translate(0.000000, 1.848649)" fill="#472F47">
                            <path d="M18.9310372,0.370648893 C18.0929432,0.2160257 17.5061495,0.838121675 17.3511743,1.26260175 L14.8465151,11.3889613 C14.8193681,11.4635669 14.7115707,11.4635669 14.6844237,11.3889613 L11.7285624,3.29142508 C11.5398512,2.77381666 11.0348641,2.42600026 10.4716295,2.42600026 L10.0143474,2.42600026 C9.45453914,2.42600026 8.95034274,2.77124405 8.75978654,3.28499357 L5.78679364,11.2996919 C5.75832881,11.3763555 5.64631445,11.3727539 5.62312089,11.2945467 L2.71022039,1.49548848 C2.52388121,0.974792927 2.01889412,0.625175703 1.45381462,0.625175703 L1.3837068,0.625175703 C1.15756958,0.625175703 0.929323846,0.664022061 0.728488687,0.765897279 C0.0943556259,1.08747309 -0.135998612,1.7941681 0.077487581,2.35602536 L4.05070283,14.6453666 C4.24284041,15.1529419 4.74440118,15.4938123 5.29893815,15.4938123 L6.11308488,15.4938123 C6.57221197,15.4938123 6.98231632,15.2133981 7.13913642,14.7922625 L10.1029046,6.84213658 C10.1303152,6.76856004 10.2370583,6.76830278 10.2647324,6.84187932 L13.2498492,14.7945778 C13.4077236,15.2144272 13.8173008,15.4938123 14.2753736,15.4938123 L15.256883,15.4938123 C15.7139016,15.4938123 16.1226881,15.2159708 16.2813532,14.7974077 L19.9586051,1.87694018 C20.1151616,1.4642941 19.7691313,0.525272085 18.9310372,0.370648893 Z" id="Fill-1"></path>
                        </g>
                        <path d="M23.9685421,4.67027027 L23.1937671,4.67027027 C22.740087,4.67027027 22.3718646,4.97087672 22.3718646,5.34124849 L22.3718646,16.259008 C22.3718646,16.6293798 22.740087,16.9297297 23.1937671,16.9297297 L23.9685421,16.9297297 C24.4222222,16.9297297 24.7904446,16.6293798 24.7904446,16.259008 L24.7904446,5.34124849 C24.7904446,4.97087672 24.4222222,4.67027027 23.9685421,4.67027027" id="Fill-4" fill="#472F47"></path>
                        <path d="M23.5812863,1.16756757 C22.9133653,1.16756757 22.3718646,1.69032866 22.3718646,2.33513514 C22.3718646,2.97968735 22.9133653,3.5027027 23.5812863,3.5027027 C24.2492073,3.5027027 24.7904446,2.97968735 24.7904446,2.33513514 C24.7904446,1.69032866 24.2492073,1.16756757 23.5812863,1.16756757" id="Fill-6" fill="#5C526F"></path>
                        <path d="M33.0427669,9.38367979 L30.8650116,8.87417719 C30.2396008,8.729699 29.7898762,8.53416845 29.5276941,8.29218024 C29.2913799,8.07469717 29.1763215,7.77578558 29.1763215,7.37859819 C29.1763215,6.90253489 29.3611694,6.559463 29.7583497,6.2980749 C30.1905595,6.01371323 30.8321378,5.86923504 31.6655698,5.86923504 C32.770076,5.86923504 33.8336246,6.20567012 34.8271144,6.86884033 C35.0529197,7.01970007 35.3347723,7.06743403 35.6004573,6.99902386 C35.8629089,6.93214526 36.0787444,6.75882249 36.1919165,6.52423687 L36.4619129,5.96546875 C36.6314016,5.61397322 36.5327802,5.19304648 36.2215568,4.94212411 C35.6969231,4.51838949 35.0717818,4.1806781 34.363378,3.93766885 C33.5199761,3.64896773 32.6121739,3.5027027 31.6655698,3.5027027 C30.0951716,3.5027027 28.8050091,3.86874815 27.8317287,4.59088384 C26.6989295,5.4309505 26.1982775,6.5648235 26.3443234,7.96110566 C26.3804307,8.30724069 26.4760881,8.63091268 26.6288705,8.92216642 C27.2286829,10.0685473 28.3682186,10.8253986 30.0111008,11.1710231 L32.1939759,11.6575521 C32.9064214,11.8045829 33.4130015,12.0031766 33.6997043,12.2472069 C33.9540721,12.4644347 34.0777531,12.7521148 34.0777531,13.1270944 C34.0777531,13.5988182 33.8953304,13.9324454 33.5038087,14.1780073 C33.0697127,14.4498611 32.3995719,14.5877025 31.511979,14.5877025 C30.6718106,14.5877025 29.9049346,14.479982 29.2326382,14.2676042 C28.7225552,14.106534 28.2084303,13.8619932 27.7040059,13.5406185 C27.4771227,13.3961403 27.1966174,13.3535116 26.9349742,13.4242191 C26.6760256,13.4944161 26.4639626,13.6679942 26.353485,13.9005377 L26.0810635,14.4738558 L26.0810635,14.474111 C25.9051077,14.8452617 26.0215134,15.2766542 26.3639938,15.5234924 C27.6573897,16.4567296 29.3635945,16.9297297 31.4351836,16.9297297 C33.0689043,16.9297297 34.3900543,16.5866578 35.361718,15.9094482 C36.3716446,15.2056914 36.8833444,14.2530543 36.8833444,13.0785946 C36.8833444,12.1034945 36.5500255,11.2978882 35.8922798,10.683473 C35.260402,10.0938182 34.2995166,9.65604415 33.0427669,9.38367979" id="Fill-8" fill="#472F47"></path>
                        <g id="Group-12" transform="translate(38.697279, 0.000000)">
                            <mask id="mask-2" fill="white">
                                <use xlink:href="#path-1"></use>
                            </mask>
                            <g id="Clip-11"></g>
                            <path d="M10.1624658,10.4603612 C10.1624658,11.9143017 9.84484207,13.04046 9.21855325,13.8077443 C8.60665252,14.5579017 7.74906849,14.9225725 6.59720745,14.9225725 C5.44317462,14.9225725 4.5722884,14.548943 3.93459771,13.7803413 C3.28414777,12.9969841 2.95430776,11.8631845 2.95430776,10.410298 C2.95430776,8.99324624 3.28279041,7.8902751 3.93106855,7.13247648 C4.56903072,6.38600795 5.4412743,6.02318156 6.59720745,6.02318156 C7.74879702,6.02318156 8.60638105,6.38785238 9.21855325,7.13774629 C9.84484207,7.90582103 10.1624658,9.02354765 10.1624658,10.4603612 M11.9232414,0.104921909 L11.2540598,0.104921909 C10.6378155,0.104921909 10.1366758,0.591325333 10.1366758,1.18918523 L10.1366758,5.06671112 C9.8242101,4.73734802 9.45989298,4.45514972 9.04562479,4.22196064 C8.22930469,3.76296023 7.26666051,3.53029814 6.18429662,3.53029814 C4.97705503,3.53029814 3.8889902,3.82013766 2.94969272,4.391912 C2.00930934,4.9650038 1.27687448,5.78340522 0.772748637,6.82419262 C0.276224043,7.84890709 0.0245683301,9.05542999 0.0245683301,10.410298 C0.0245683301,11.7651661 0.280567615,12.9801207 0.78550788,14.0214351 C1.2969635,15.0767144 2.02722658,15.9106618 2.95647955,16.4998265 C3.88763283,17.0905722 4.97379735,17.3904243 6.18429662,17.3904243 C7.26611756,17.3904243 8.2322909,17.1580257 9.05675519,16.6998158 C9.47753875,16.4655727 9.84674238,16.1796856 10.1624658,15.8445257 L10.1624658,16.1430604 C10.1624658,16.734333 10.6579045,17.2152032 11.266819,17.2152032 L11.9362721,17.2152032 C12.5451866,17.2152032 13.0406253,16.734333 13.0406253,16.1430604 L13.0406253,1.18918523 C13.0406253,0.591325333 12.5394857,0.104921909 11.9232414,0.104921909" id="Fill-10" fill="#472F47" mask="url(#mask-2)"></path>
                        </g>
                        <g id="Group-15" transform="translate(53.208759, 3.502703)">
                            <mask id="mask-4" fill="white">
                                <use xlink:href="#path-3"></use>
                            </mask>
                            <g id="Clip-14"></g>
                            <path d="M10.3383533,7.05806491 C10.3383533,8.5482336 10.021544,9.68548847 9.39715551,10.4386356 C8.78471184,11.1761859 7.91789771,11.5349155 6.74703354,11.5349155 C5.57535495,11.5349155 4.70365431,11.1756572 4.08306643,10.4370495 C3.45053373,9.68443105 3.13019529,8.54744053 3.13019529,7.05806491 C3.13019529,5.61812365 3.45542025,4.49752314 4.0966401,3.72825032 C4.72645806,2.97351702 5.59327218,2.60632804 6.74703354,2.60632804 C7.88369208,2.60632804 8.74209053,2.97351702 9.37163703,3.72825032 C10.0131283,4.4977875 10.3383533,5.61838801 10.3383533,7.05806491 M12.4900504,3.41419668 C11.9495471,2.36179973 11.1720477,1.53754109 10.17927,0.964155268 C9.19110731,0.394470413 8.03653153,0.10526613 6.74703354,0.10526613 C5.45780703,0.10526613 4.30323125,0.394470413 3.3147971,0.964419623 C2.32174792,1.53780545 1.5442485,2.36206409 1.00428818,3.41419668 C0.470843224,4.45337587 0.200455856,5.67945399 0.200455856,7.05806491 C0.200455856,8.43720453 0.470843224,9.6630183 1.00428818,10.7019331 C1.54451997,11.7548588 2.32201939,12.5788531 3.31506858,13.1517102 C4.3026883,13.7216594 5.45753555,14.0108637 6.74703354,14.0108637 C8.036803,14.0108637 9.19165025,13.7216594 10.17927,13.1519745 C11.1717762,12.5793818 11.9492756,11.7551231 12.4900504,10.7019331 C13.0234953,9.66248959 13.2938827,8.43641146 13.2938827,7.05806491 C13.2938827,5.68024706 13.0234953,4.45416893 12.4900504,3.41419668" id="Fill-13" fill="#472F47" mask="url(#mask-4)"></path>
                        </g>
                    </g>
                </g>
            </g>
        </g>
    </g>
</svg>